<?xml version="1.0" standalone="no"?>
<!DOCTYPE svg PUBLIC "-//W3C//DTD SVG 20010904//EN"
 "http://www.w3.org/TR/2001/REC-SVG-20010904/DTD/svg10.dtd">
<svg version="1.0" xmlns="http://www.w3.org/2000/svg"
 width="822.000000pt" height="927.000000pt" viewBox="0 0 822.000000 927.000000"
 preserveAspectRatio="xMidYMid meet">
<metadata>
Created by potrace 1.15, written by Peter Selinger 2001-2017
</metadata>
<g transform="translate(0.000000,927.000000) scale(0.100000,-0.100000)"
fill="#000000" stroke="none">
<path d="M4500 6991 c0 -25 54 -51 106 -51 l54 0 0 -60 0 -60 -47 24 c-75 37
-114 46 -200 46 l-82 0 -30 -37 c-41 -50 -39 -73 9 -117 39 -35 43 -36 118
-36 l77 0 0 -100 c0 -55 -4 -100 -9 -100 -4 0 -6 -9 -3 -20 5 -20 2 -20 -82
-14 l-88 7 -26 -35 c-50 -65 -27 -116 86 -191 34 -23 45 -25 106 -20 65 5 69
4 94 -23 15 -16 27 -40 27 -55 0 -26 35 -68 46 -56 4 3 3 26 0 51 -6 35 -16
52 -47 80 -36 33 -44 36 -102 36 -85 0 -177 45 -177 86 1 53 10 64 59 64 71
-1 187 -18 239 -35 28 -10 66 -34 94 -62 25 -25 51 -42 57 -39 16 10 14 244
-2 276 -12 24 -18 25 -105 28 -54 2 -92 -1 -92 -7 0 -25 54 -51 107 -51 46 0
54 -3 49 -16 -3 -9 -6 -47 -6 -85 l0 -70 -41 33 c-22 18 -60 40 -82 48 l-42
16 -1 107 c-1 88 -4 111 -19 127 -18 20 -17 20 17 20 26 0 39 -7 56 -30 13
-16 27 -30 32 -30 21 0 8 42 -24 78 l-34 37 -138 5 c-82 3 -139 9 -141 15 -2
6 6 21 17 33 18 19 31 22 107 22 93 0 145 -12 210 -47 70 -38 73 -36 73 66 0
53 4 93 11 96 7 5 2 16 -12 31 -21 22 -30 24 -121 24 -54 0 -98 -4 -98 -9z"/>
</g>
</svg>
